<svg width="25" height="25" viewBox="0 0 25 25" fill="none" xmlns="http://www.w3.org/2000/svg">
<path d="M0 9.02778V1.38889C0 1.02053 0.131696 0.667263 0.366116 0.406796C0.600537 0.146329 0.918479 0 1.25 0H23.75C24.0815 0 24.3995 0.146329 24.6339 0.406796C24.8683 0.667263 25 1.02053 25 1.38889V9.02778C24.1712 9.02778 23.3763 9.3936 22.7903 10.0448C22.2042 10.6959 21.875 11.5791 21.875 12.5C21.875 13.4209 22.2042 14.3041 22.7903 14.9552C23.3763 15.6064 24.1712 15.9722 25 15.9722V23.6111C25 23.9795 24.8683 24.3327 24.6339 24.5932C24.3995 24.8537 24.0815 25 23.75 25H1.25C0.918479 25 0.600537 24.8537 0.366116 24.5932C0.131696 24.3327 0 23.9795 0 23.6111V15.9722C0.828802 15.9722 1.62366 15.6064 2.20971 14.9552C2.79576 14.3041 3.125 13.4209 3.125 12.5C3.125 11.5791 2.79576 10.6959 2.20971 10.0448C1.62366 9.3936 0.828802 9.02778 0 9.02778ZM15 2.77778H2.5V6.9C3.43901 7.41708 4.22934 8.21535 4.78188 9.2048C5.33442 10.1943 5.6272 11.3356 5.6272 12.5C5.6272 13.6644 5.33442 14.8057 4.78188 15.7952C4.22934 16.7847 3.43901 17.5829 2.5 18.1V22.2222H15V2.77778ZM17.5 2.77778V22.2222H22.5V18.1C21.561 17.5829 20.7707 16.7847 20.2181 15.7952C19.6656 14.8057 19.3728 13.6644 19.3728 12.5C19.3728 11.3356 19.6656 10.1943 20.2181 9.2048C20.7707 8.21535 21.561 7.41708 22.5 6.9V2.77778H17.5Z" fill="black"/>
</svg>
