<svg width="34" height="29" viewBox="0 0 34 29" fill="none" xmlns="http://www.w3.org/2000/svg">
<path d="M20.75 20.75V23.875C20.75 24.7038 20.4208 25.4987 19.8347 26.0847C19.2487 26.6708 18.4538 27 17.625 27H5.125C4.2962 27 3.50134 26.6708 2.91529 26.0847C2.32924 25.4987 2 24.7038 2 23.875V5.125C2 4.2962 2.32924 3.50134 2.91529 2.91529C3.50134 2.32924 4.2962 2 5.125 2H17C18.7258 2 20.75 3.39922 20.75 5.125V8.25" stroke="black" stroke-width="3.39" stroke-linecap="round" stroke-linejoin="round"/>
<path d="M25.75 20.75L32 14.5L25.75 8.25" stroke="black" stroke-width="3.39" stroke-linecap="round" stroke-linejoin="round"/>
<path d="M10.75 14.5H30.75" stroke="black" stroke-width="3.39" stroke-linecap="round" stroke-linejoin="round"/>
</svg>
