<svg width="25" height="24" viewBox="0 0 25 24" fill="none" xmlns="http://www.w3.org/2000/svg">
<path d="M7.12498 0.354778H23.2125C23.6866 0.354778 24.1412 0.595928 24.4765 1.02518C24.8117 1.45443 25 2.03662 25 2.64367C25 3.25072 24.8117 3.83291 24.4765 4.26216C24.1412 4.69141 23.6866 4.93256 23.2125 4.93256H7.12498C6.65091 4.93256 6.19625 4.69141 5.86103 4.26216C5.52581 3.83291 5.33748 3.25072 5.33748 2.64367C5.33748 2.03662 5.52581 1.45443 5.86103 1.02518C6.19625 0.595928 6.65091 0.354778 7.12498 0.354778ZM7.12498 18.6659H23.2125C23.6866 18.6659 24.1412 18.9071 24.4765 19.3363C24.8117 19.7656 25 20.3477 25 20.9548C25 21.5618 24.8117 22.144 24.4765 22.5733C24.1412 23.0025 23.6866 23.2437 23.2125 23.2437H7.12498C6.65091 23.2437 6.19625 23.0025 5.86103 22.5733C5.52581 22.144 5.33748 21.5618 5.33748 20.9548C5.33748 20.3477 5.52581 19.7656 5.86103 19.3363C6.19625 18.9071 6.65091 18.6659 7.12498 18.6659ZM7.12498 9.51034H23.2125C23.6866 9.51034 24.1412 9.75149 24.4765 10.1807C24.8117 10.61 25 11.1922 25 11.7992C25 12.4063 24.8117 12.9885 24.4765 13.4177C24.1412 13.847 23.6866 14.0881 23.2125 14.0881H7.12498C6.65091 14.0881 6.19625 13.847 5.86103 13.4177C5.52581 12.9885 5.33748 12.4063 5.33748 11.7992C5.33748 11.1922 5.52581 10.61 5.86103 10.1807C6.19625 9.75149 6.65091 9.51034 7.12498 9.51034ZM0.757901 0H2.0449L1.96089 4.93256H1.13685L1.22623 0.995667H0.375375L0.757901 0ZM0.909838 10.8608L0.105463 10.7395C0.125125 10.181 0.266338 9.73465 0.523738 9.40734C0.655093 9.24419 0.810835 9.1167 0.981619 9.03253C1.1524 8.94836 1.33471 8.90924 1.51759 8.91752C1.76605 8.91752 1.9877 8.98618 2.17896 9.12123C2.37371 9.25898 2.53464 9.46346 2.64372 9.71176C2.75494 9.94826 2.81479 10.2185 2.8171 10.4946C2.8093 10.8423 2.73895 11.183 2.61154 11.4902C2.47748 11.8404 2.23438 12.2456 1.88403 12.7148L1.6016 13.1039H2.75812V14.0881H0L0.0268125 13.5594L1.21729 12.0029C1.49971 11.6367 1.6874 11.3437 1.77678 11.1286C1.85591 10.9583 1.90133 10.7657 1.90905 10.5678C1.91123 10.4959 1.90171 10.4241 1.8811 10.3571C1.86048 10.2902 1.82922 10.2294 1.78929 10.1787C1.74688 10.1267 1.69664 10.0862 1.64163 10.0599C1.58662 10.0335 1.528 10.0217 1.46933 10.0253C1.40777 10.0235 1.34666 10.0392 1.29041 10.0713C1.23416 10.1033 1.18415 10.151 1.144 10.2107C1.08323 10.2977 1.00636 10.5129 0.909838 10.8608ZM2.66517 20.9273C2.80817 21.1699 2.88145 21.4538 2.88145 21.7811C2.88378 22.0083 2.84833 22.2336 2.77745 22.442C2.70657 22.6504 2.60187 22.837 2.47033 22.9896C2.18933 23.3216 1.81747 23.4984 1.43536 23.4817C1.25709 23.4902 1.07926 23.4535 0.912084 23.3738C0.744907 23.2941 0.591673 23.1728 0.461176 23.0171C0.20735 22.7058 0.0679251 22.2846 0.134063 21.6369L0.949163 21.733C0.975976 21.9642 1.03854 22.1313 1.12791 22.2366C1.21729 22.3396 1.33348 22.3922 1.47469 22.3922C1.62305 22.3922 1.74281 22.3327 1.83755 22.2137C1.88389 22.1581 1.92058 22.0907 1.94521 22.0157C1.96985 21.9408 1.98189 21.8601 1.98055 21.7788C1.98038 21.6849 1.9626 21.5924 1.92869 21.5092C1.89478 21.4259 1.84575 21.3543 1.78571 21.3004C1.65165 21.1631 1.45145 21.0944 1.09574 20.9731L1.17796 20.0553C1.30227 20.0494 1.42492 20.0169 1.54083 19.9591C1.60719 19.9207 1.66406 19.8598 1.70528 19.7829C1.74219 19.7159 1.76216 19.636 1.76248 19.554C1.76381 19.5075 1.75732 19.4611 1.74344 19.418C1.72956 19.375 1.70862 19.3363 1.68204 19.3045C1.61975 19.2338 1.53812 19.1976 1.45503 19.2038C1.37097 19.2033 1.28918 19.2387 1.22265 19.3045C1.15421 19.3684 1.10398 19.4592 1.07965 19.5631L0.993851 19.6433L0.2002 19.5151C0.226047 19.1619 0.342303 18.8296 0.530888 18.5698C0.65321 18.4073 0.800621 18.2792 0.963731 18.1937C1.12684 18.1082 1.30207 18.0671 1.47826 18.0731C1.8161 18.0731 2.10389 18.2104 2.33448 18.4897C2.44458 18.6148 2.5326 18.7685 2.5927 18.9406C2.6528 19.1126 2.6836 19.2991 2.68304 19.4876C2.6842 19.7238 2.63003 19.955 2.52753 20.1514C2.42743 20.3459 2.28443 20.5016 2.0878 20.4261C2.31705 20.5101 2.51934 20.6857 2.66517 20.9273Z" fill="black"/>
</svg>
