<svg width="29" height="29" viewBox="0 0 29 29" fill="none" xmlns="http://www.w3.org/2000/svg">
<path d="M12.0951 3.45389C12.17 2.63048 12.8604 2 13.6871 2H15.3129C16.1396 2 16.83 2.63048 16.9049 3.45389C16.9664 4.1299 17.4529 4.68179 18.0885 4.92C18.2519 4.98124 18.4134 5.04655 18.5727 5.11579C19.2016 5.38911 19.9414 5.33673 20.4681 4.89773C21.1191 4.35525 22.0764 4.39868 22.6755 4.99786L23.823 6.14529C24.3943 6.71657 24.4356 7.62922 23.9184 8.2499C23.4876 8.76686 23.4475 9.49681 23.7371 10.1043C23.8625 10.3673 23.977 10.6366 24.08 10.9114C24.3182 11.5471 24.8701 12.0336 25.5461 12.0951C26.3695 12.17 27 12.8604 27 13.6871V15.3129C27 16.1396 26.3695 16.83 25.5461 16.9049C24.8701 16.9664 24.3182 17.4529 24.08 18.0885C23.9875 18.3353 23.8858 18.5775 23.7753 18.8148C23.5066 19.3913 23.5501 20.0796 23.9572 20.5683C24.4525 21.1625 24.4129 22.0364 23.8659 22.5834L22.5834 23.8659C22.0364 24.4129 21.1625 24.4525 20.5683 23.9572C20.0796 23.5501 19.3913 23.5066 18.8148 23.7753C18.5775 23.8858 18.3353 23.9875 18.0885 24.08C17.4529 24.3182 16.9664 24.8701 16.9049 25.5461C16.83 26.3695 16.1396 27 15.3129 27H13.6871C12.8604 27 12.17 26.3695 12.0951 25.5461C12.0336 24.8701 11.5471 24.3182 10.9115 24.08C10.6366 23.977 10.3673 23.8625 10.1043 23.7371C9.49682 23.4475 8.76687 23.4876 8.2499 23.9184C7.62922 24.4356 6.71656 24.3943 6.14527 23.823L4.99786 22.6755C4.39866 22.0764 4.35525 21.1191 4.89773 20.4681C5.33674 19.9414 5.38911 19.2016 5.11579 18.5727C5.04655 18.4134 4.98125 18.252 4.92 18.0885C4.6818 17.4529 4.1299 16.9664 3.45389 16.9049C2.63048 16.83 2 16.1396 2 15.3129V13.6871C2 12.8604 2.63048 12.17 3.45389 12.0951C4.12991 12.0336 4.6818 11.5471 4.92001 10.9115C4.992 10.7194 5.0696 10.53 5.15261 10.3436C5.44637 9.68395 5.39755 8.90321 4.93526 8.34846C4.37152 7.67198 4.41665 6.67724 5.03931 6.05456L6.05455 5.03932C6.67722 4.41665 7.67196 4.37152 8.34845 4.93527C8.9032 5.39756 9.68394 5.44637 10.3436 5.15261C10.53 5.0696 10.7194 4.992 10.9114 4.92001C11.5471 4.6818 12.0336 4.12991 12.0951 3.45389Z" stroke="black" stroke-width="2.63" stroke-linecap="round" stroke-linejoin="round"/>
<path d="M18.25 14.5C18.25 16.5711 16.5711 18.25 14.5 18.25C12.4289 18.25 10.75 16.5711 10.75 14.5C10.75 12.4289 12.4289 10.75 14.5 10.75C16.5711 10.75 18.25 12.4289 18.25 14.5Z" stroke="black" stroke-width="2.63" stroke-linecap="round" stroke-linejoin="round"/>
</svg>
