<svg width="31" height="27" viewBox="0 0 31 27" fill="none" xmlns="http://www.w3.org/2000/svg">
<path d="M3 13.4167C3 10.7973 3 9.48892 3.81389 8.67503C4.62778 7.86115 5.93611 7.86115 8.55556 7.86115H22.4444C25.0639 7.86115 26.3722 7.86115 27.1861 8.67503C28 9.48892 28 10.7973 28 13.4167V18.9723C28 21.5917 28 22.9 27.1861 23.7139C26.3722 24.5278 25.0639 24.5278 22.4444 24.5278H8.55556C5.93611 24.5278 4.62778 24.5278 3.81389 23.7139C3 22.9 3 21.5917 3 18.9723V13.4167Z" stroke="black" stroke-width="4.51"/>
<path d="M23.8333 7.86111L23.1931 6.36667C22.4931 4.73472 22.1431 3.91806 21.4472 3.45833C20.7528 3 19.8639 3 18.0861 3H8.55556C5.93611 3 4.62778 3 3.81389 3.81389C3 4.62778 3 5.93611 3 8.55556V17.5833" stroke="black" stroke-width="4.51"/>
<path d="M24.5278 13.4167C24.5278 12.6497 23.906 12.0278 23.1389 12.0278C22.3718 12.0278 21.75 12.6497 21.75 13.4167C21.75 14.1838 22.3718 14.8056 23.1389 14.8056C23.906 14.8056 24.5278 14.1838 24.5278 13.4167Z" fill="black"/>
</svg>
