<svg width="25" height="25" viewBox="0 0 25 25" fill="none" xmlns="http://www.w3.org/2000/svg">
<path d="M12.5 5C9.78877 5 7.58252 7.20625 7.58252 9.9175H10.0825C10.0825 8.58375 11.1675 7.5 12.5 7.5C13.8325 7.5 14.9175 8.58375 14.9175 9.9175C14.9175 10.665 14.3163 11.2075 13.3975 11.95C13.0788 12.2087 12.7775 12.455 12.5338 12.6987C11.2863 13.945 11.25 15.2687 11.25 15.4162V16.25H13.75L13.7488 15.4587C13.75 15.4387 13.79 14.9762 14.3 14.4675C14.4875 14.28 14.7238 14.0925 14.9688 13.895C15.9425 13.1062 17.4163 11.915 17.4163 9.9175C17.4175 7.20625 15.2113 5 12.5 5ZM11.25 17.5H13.75V20H11.25V17.5Z" fill="black"/>
<path d="M12.5 0C5.6075 0 0 5.6075 0 12.5C0 19.3925 5.6075 25 12.5 25C19.3925 25 25 19.3925 25 12.5C25 5.6075 19.3925 0 12.5 0ZM12.5 22.5C6.98625 22.5 2.5 18.0138 2.5 12.5C2.5 6.98625 6.98625 2.5 12.5 2.5C18.0138 2.5 22.5 6.98625 22.5 12.5C22.5 18.0138 18.0138 22.5 12.5 22.5Z" fill="black"/>
</svg>
