<svg width="29" height="29" viewBox="0 0 29 29" fill="none" xmlns="http://www.w3.org/2000/svg">
<path d="M8.94448 2H4.77779C3.24366 2 2 3.24366 2 4.77779V8.94448C2 10.4786 3.24366 11.7223 4.77779 11.7223H8.94448C10.4786 11.7223 11.7223 10.4786 11.7223 8.94448V4.77779C11.7223 3.24366 10.4786 2 8.94448 2Z" stroke="black" stroke-width="2.51" stroke-linecap="round" stroke-linejoin="round"/>
<path d="M8.94448 17.278H4.77779C3.24366 17.278 2 18.5216 2 20.0557V24.2224C2 25.7566 3.24366 27.0002 4.77779 27.0002H8.94448C10.4786 27.0002 11.7223 25.7566 11.7223 24.2224V20.0557C11.7223 18.5216 10.4786 17.278 8.94448 17.278Z" stroke="black" stroke-width="2.51" stroke-linecap="round" stroke-linejoin="round"/>
<path d="M24.2223 2H20.0556C18.5215 2 17.2778 3.24366 17.2778 4.77779V8.94448C17.2778 10.4786 18.5215 11.7223 20.0556 11.7223H24.2223C25.7564 11.7223 27.0001 10.4786 27.0001 8.94448V4.77779C27.0001 3.24366 25.7564 2 24.2223 2Z" stroke="black" stroke-width="2.51" stroke-linecap="round" stroke-linejoin="round"/>
<path d="M24.2223 17.278H20.0556C18.5215 17.278 17.2778 18.5216 17.2778 20.0557V24.2224C17.2778 25.7566 18.5215 27.0002 20.0556 27.0002H24.2223C25.7564 27.0002 27.0001 25.7566 27.0001 24.2224V20.0557C27.0001 18.5216 25.7564 17.278 24.2223 17.278Z" stroke="black" stroke-width="2.51" stroke-linecap="round" stroke-linejoin="round"/>
</svg>
