<svg width="25" height="25" viewBox="0 0 25 25" fill="none" xmlns="http://www.w3.org/2000/svg">
<path d="M19.7917 14.5834V6.25002C19.7917 5.10419 18.8542 4.16669 17.7084 4.16669H3.12502C1.97919 4.16669 1.04169 5.10419 1.04169 6.25002V14.5834C1.04169 15.7292 1.97919 16.6667 3.12502 16.6667H17.7084C18.8542 16.6667 19.7917 15.7292 19.7917 14.5834ZM17.7084 14.5834H3.12502V6.25002H17.7084V14.5834ZM10.4167 7.29169C8.68752 7.29169 7.29169 8.68752 7.29169 10.4167C7.29169 12.1459 8.68752 13.5417 10.4167 13.5417C12.1459 13.5417 13.5417 12.1459 13.5417 10.4167C13.5417 8.68752 12.1459 7.29169 10.4167 7.29169ZM23.9584 7.29169V18.75C23.9584 19.8959 23.0209 20.8334 21.875 20.8334H4.16669C4.16669 19.7917 4.16669 19.8959 4.16669 18.75H21.875V7.29169H23.9584Z" fill="black"/>
</svg>
